# xmcd
#
# Track frame offsets:
#	150
#	13801
#	24554
#	34947
#	45358
#	58357
#	70049
#	80138
#	92810
#	107468
#	120821
#	131361
#	145631
#	157444
#	170717
#	183655
#	195937
#	206383
#	219676
#	230790
#	241254
#	254611
#	270239
#	281661
#
# Disc length: 3931 seconds
#
# Revision: 1
# Processed by: cddbd v1.5.2PL0 Copyright (c) Steve Scherf et al.
# Submitted via: EasyCDDAExtractor 10.0.2.1
#
DISCID=5c0f5918
DTITLE=The Louvin Brothers - Satan Is Real - Tragic Songs Of Life
DYEAR=1996
DGENRE=Country
TTITLE0=Satan Is Real
TTITLE1=There's A Higher Power
TTITLE2=The Christian Life
TTITLE3=The River Of Jordan
TTITLE4=The Kneeling Drunkard's Plea
TTITLE5=Are You Afraid To Die
TTITLE6=He Can Be Found
TTITLE7=Dying From Home, And Lost
TTITLE8=The Drunkard's Doom
TTITLE9=Satan's Jeweled Crown
TTITLE10=The Angels Rejoiced Last Night
TTITLE11=I'm Ready To Go Home
TTITLE12=Kentucky
TTITLE13=I'll Be All Smiles Tonight
TTITLE14=Let Her Go, God Bless Her
TTITLE15=What Is Home Without Love
TTITLE16=A Tiny Broken Heart
TTITLE17=In The Pines
TTITLE18=Alabama
TTITLE19=Katie Dear
TTITLE20=My Brother's Will
TTITLE21=Knoxville Girl
TTITLE22=Take The News To Mother
TTITLE23=Mary Of The Wild Moor
EXTD=
EXTT0=
EXTT1=
EXTT2=
EXTT3=
EXTT4=
EXTT5=
EXTT6=
EXTT7=
EXTT8=
EXTT9=
EXTT10=
EXTT11=
EXTT12=
EXTT13=
EXTT14=
EXTT15=
EXTT16=
EXTT17=
EXTT18=
EXTT19=
EXTT20=
EXTT21=
EXTT22=
EXTT23=
PLAYORDER=
